<svg xmlns="http://www.w3.org/2000/svg" viewBox="0 0 32 32" width="32" height="32">
  <!-- Simplified version of your logo optimized for favicon -->
  <rect width="32" height="32" fill="#FFFFFA" rx="4"/>
  
  <!-- Main logo elements simplified -->
  <g fill="#001369" transform="scale(0.08) translate(20, 50)">
    <!-- L -->
    <rect x="20" y="0" width="40" height="200"/>
    <rect x="20" y="160" width="120" height="40"/>
    
    <!-- O -->
    <circle cx="200" cy="100" r="80" fill="none" stroke="#001369" stroke-width="30"/>
    
    <!-- S -->
    <path d="M280 40 Q320 20 360 40 Q400 60 400 100 Q400 140 360 160 Q320 180 280 160 Q240 140 240 100 Q240 60 280 40" 
          fill="none" stroke="#001369" stroke-width="25"/>
    
    <!-- O -->
    <circle cx="460" cy="100" r="80" fill="none" stroke="#001369" stroke-width="30"/>
    
    <!-- S -->
    <path d="M540 40 Q580 20 620 40 Q660 60 660 100 Q660 140 620 160 Q580 180 540 160 Q500 140 500 100 Q500 60 540 40" 
          fill="none" stroke="#001369" stroke-width="25"/>
    
    <!-- 4 -->
    <path d="M720 0 L720 120 L800 120 L800 0 L840 0 L840 200 L800 200 L800 160 L680 160 L680 200 L640 200 L640 120 L720 120" 
          fill="#001369"/>
  </g>
</svg>
