<svg xmlns="http://www.w3.org/2000/svg" xmlns:xlink="http://www.w3.org/1999/xlink" width="500" zoomAndPan="magnify" viewBox="0 0 375 374.999991" height="500" preserveAspectRatio="xMidYMid meet" version="1.0"><defs><g/><clipPath id="ac5a00fe95"><rect x="0" width="132" y="0" height="11"/></clipPath><clipPath id="91b69ce4b9"><path d="M 170 59.007812 L 204 59.007812 L 204 174 L 170 174 Z M 170 59.007812 " clip-rule="nonzero"/></clipPath></defs><g fill="#001369" fill-opacity="1"><g transform="translate(97.246741, 222.810468)"><g><path d="M 20.296875 0 L 2.21875 0 L 2.21875 -28.140625 L 8.8125 -28.140625 L 8.8125 -5.90625 L 20.296875 -5.90625 Z M 20.296875 0 "/></g></g></g><g fill="#001369" fill-opacity="1"><g transform="translate(128.900227, 222.810468)"><g><path d="M 15.234375 0.625 C 12.828125 0.625 10.738281 0.234375 8.96875 -0.546875 C 7.195312 -1.335938 5.738281 -2.414062 4.59375 -3.78125 C 3.445312 -5.144531 2.59375 -6.710938 2.03125 -8.484375 C 1.46875 -10.253906 1.1875 -12.125 1.1875 -14.09375 C 1.1875 -16.0625 1.46875 -17.921875 2.03125 -19.671875 C 2.59375 -21.429688 3.445312 -22.992188 4.59375 -24.359375 C 5.738281 -25.722656 7.195312 -26.789062 8.96875 -27.5625 C 10.738281 -28.34375 12.828125 -28.734375 15.234375 -28.734375 C 17.617188 -28.734375 19.691406 -28.34375 21.453125 -27.5625 C 23.210938 -26.789062 24.671875 -25.722656 25.828125 -24.359375 C 26.984375 -22.992188 27.84375 -21.429688 28.40625 -19.671875 C 28.96875 -17.921875 29.25 -16.0625 29.25 -14.09375 C 29.25 -12.125 28.96875 -10.253906 28.40625 -8.484375 C 27.84375 -6.710938 26.984375 -5.144531 25.828125 -3.78125 C 24.671875 -2.414062 23.210938 -1.335938 21.453125 -0.546875 C 19.691406 0.234375 17.617188 0.625 15.234375 0.625 Z M 15.234375 -5.28125 C 17.453125 -5.28125 19.179688 -6.078125 20.421875 -7.671875 C 21.660156 -9.273438 22.28125 -11.414062 22.28125 -14.09375 C 22.28125 -16.75 21.660156 -18.867188 20.421875 -20.453125 C 19.179688 -22.035156 17.453125 -22.828125 15.234375 -22.828125 C 13.023438 -22.828125 11.289062 -22.035156 10.03125 -20.453125 C 8.78125 -18.867188 8.15625 -16.75 8.15625 -14.09375 C 8.15625 -11.414062 8.78125 -9.273438 10.03125 -7.671875 C 11.289062 -6.078125 13.023438 -5.28125 15.234375 -5.28125 Z M 15.234375 -5.28125 "/></g></g></g><g fill="#001369" fill-opacity="1"><g transform="translate(170.440389, 222.810468)"><g><path d="M 14.0625 0.625 C 12.726562 0.625 11.332031 0.457031 9.875 0.125 C 8.425781 -0.207031 7.0625 -0.753906 5.78125 -1.515625 C 4.507812 -2.273438 3.445312 -3.3125 2.59375 -4.625 C 1.75 -5.945312 1.265625 -7.585938 1.140625 -9.546875 L 7.96875 -9.546875 C 8.289062 -8.316406 8.765625 -7.363281 9.390625 -6.6875 C 10.015625 -6.019531 10.734375 -5.554688 11.546875 -5.296875 C 12.359375 -5.035156 13.179688 -4.90625 14.015625 -4.90625 C 14.773438 -4.90625 15.488281 -5.015625 16.15625 -5.234375 C 16.820312 -5.460938 17.363281 -5.800781 17.78125 -6.25 C 18.195312 -6.707031 18.40625 -7.304688 18.40625 -8.046875 C 18.40625 -8.785156 18.125 -9.367188 17.5625 -9.796875 C 17 -10.222656 16.25 -10.570312 15.3125 -10.84375 C 14.375 -11.113281 13.351562 -11.375 12.25 -11.625 C 11.070312 -11.894531 9.875 -12.203125 8.65625 -12.546875 C 7.4375 -12.890625 6.316406 -13.359375 5.296875 -13.953125 C 4.273438 -14.554688 3.445312 -15.347656 2.8125 -16.328125 C 2.1875 -17.316406 1.875 -18.585938 1.875 -20.140625 C 1.875 -22.085938 2.34375 -23.691406 3.28125 -24.953125 C 4.21875 -26.222656 5.476562 -27.171875 7.0625 -27.796875 C 8.644531 -28.421875 10.398438 -28.734375 12.328125 -28.734375 C 14.285156 -28.734375 16.125 -28.390625 17.84375 -27.703125 C 19.570312 -27.015625 21.015625 -25.972656 22.171875 -24.578125 C 23.328125 -23.191406 24.050781 -21.457031 24.34375 -19.375 L 17.515625 -19.375 C 17.203125 -20.570312 16.578125 -21.507812 15.640625 -22.1875 C 14.703125 -22.863281 13.546875 -23.203125 12.171875 -23.203125 C 11.234375 -23.203125 10.378906 -23.003906 9.609375 -22.609375 C 8.835938 -22.222656 8.453125 -21.585938 8.453125 -20.703125 C 8.453125 -20.035156 8.722656 -19.488281 9.265625 -19.0625 C 9.804688 -18.644531 10.53125 -18.304688 11.4375 -18.046875 C 12.34375 -17.796875 13.328125 -17.546875 14.390625 -17.296875 C 15.566406 -17.023438 16.78125 -16.710938 18.03125 -16.359375 C 19.289062 -16.003906 20.445312 -15.507812 21.5 -14.875 C 22.5625 -14.25 23.414062 -13.414062 24.0625 -12.375 C 24.71875 -11.332031 25.046875 -10 25.046875 -8.375 C 25.046875 -6.53125 24.601562 -4.9375 23.71875 -3.59375 C 22.832031 -2.257812 21.570312 -1.222656 19.9375 -0.484375 C 18.300781 0.253906 16.34375 0.625 14.0625 0.625 Z M 14.0625 0.625 "/></g></g></g><g fill="#001369" fill-opacity="1"><g transform="translate(207.775019, 222.810468)"><g><path d="M 15.234375 0.625 C 12.828125 0.625 10.738281 0.234375 8.96875 -0.546875 C 7.195312 -1.335938 5.738281 -2.414062 4.59375 -3.78125 C 3.445312 -5.144531 2.59375 -6.710938 2.03125 -8.484375 C 1.46875 -10.253906 1.1875 -12.125 1.1875 -14.09375 C 1.1875 -16.0625 1.46875 -17.921875 2.03125 -19.671875 C 2.59375 -21.429688 3.445312 -22.992188 4.59375 -24.359375 C 5.738281 -25.722656 7.195312 -26.789062 8.96875 -27.5625 C 10.738281 -28.34375 12.828125 -28.734375 15.234375 -28.734375 C 17.617188 -28.734375 19.691406 -28.34375 21.453125 -27.5625 C 23.210938 -26.789062 24.671875 -25.722656 25.828125 -24.359375 C 26.984375 -22.992188 27.84375 -21.429688 28.40625 -19.671875 C 28.96875 -17.921875 29.25 -16.0625 29.25 -14.09375 C 29.25 -12.125 28.96875 -10.253906 28.40625 -8.484375 C 27.84375 -6.710938 26.984375 -5.144531 25.828125 -3.78125 C 24.671875 -2.414062 23.210938 -1.335938 21.453125 -0.546875 C 19.691406 0.234375 17.617188 0.625 15.234375 0.625 Z M 15.234375 -5.28125 C 17.453125 -5.28125 19.179688 -6.078125 20.421875 -7.671875 C 21.660156 -9.273438 22.28125 -11.414062 22.28125 -14.09375 C 22.28125 -16.75 21.660156 -18.867188 20.421875 -20.453125 C 19.179688 -22.035156 17.453125 -22.828125 15.234375 -22.828125 C 13.023438 -22.828125 11.289062 -22.035156 10.03125 -20.453125 C 8.78125 -18.867188 8.15625 -16.75 8.15625 -14.09375 C 8.15625 -11.414062 8.78125 -9.273438 10.03125 -7.671875 C 11.289062 -6.078125 13.023438 -5.28125 15.234375 -5.28125 Z M 15.234375 -5.28125 "/></g></g></g><g fill="#001369" fill-opacity="1"><g transform="translate(249.315182, 222.810468)"><g><path d="M 14.0625 0.625 C 12.726562 0.625 11.332031 0.457031 9.875 0.125 C 8.425781 -0.207031 7.0625 -0.753906 5.78125 -1.515625 C 4.507812 -2.273438 3.445312 -3.3125 2.59375 -4.625 C 1.75 -5.945312 1.265625 -7.585938 1.140625 -9.546875 L 7.96875 -9.546875 C 8.289062 -8.316406 8.765625 -7.363281 9.390625 -6.6875 C 10.015625 -6.019531 10.734375 -5.554688 11.546875 -5.296875 C 12.359375 -5.035156 13.179688 -4.90625 14.015625 -4.90625 C 14.773438 -4.90625 15.488281 -5.015625 16.15625 -5.234375 C 16.820312 -5.460938 17.363281 -5.800781 17.78125 -6.25 C 18.195312 -6.707031 18.40625 -7.304688 18.40625 -8.046875 C 18.40625 -8.785156 18.125 -9.367188 17.5625 -9.796875 C 17 -10.222656 16.25 -10.570312 15.3125 -10.84375 C 14.375 -11.113281 13.351562 -11.375 12.25 -11.625 C 11.070312 -11.894531 9.875 -12.203125 8.65625 -12.546875 C 7.4375 -12.890625 6.316406 -13.359375 5.296875 -13.953125 C 4.273438 -14.554688 3.445312 -15.347656 2.8125 -16.328125 C 2.1875 -17.316406 1.875 -18.585938 1.875 -20.140625 C 1.875 -22.085938 2.34375 -23.691406 3.28125 -24.953125 C 4.21875 -26.222656 5.476562 -27.171875 7.0625 -27.796875 C 8.644531 -28.421875 10.398438 -28.734375 12.328125 -28.734375 C 14.285156 -28.734375 16.125 -28.390625 17.84375 -27.703125 C 19.570312 -27.015625 21.015625 -25.972656 22.171875 -24.578125 C 23.328125 -23.191406 24.050781 -21.457031 24.34375 -19.375 L 17.515625 -19.375 C 17.203125 -20.570312 16.578125 -21.507812 15.640625 -22.1875 C 14.703125 -22.863281 13.546875 -23.203125 12.171875 -23.203125 C 11.234375 -23.203125 10.378906 -23.003906 9.609375 -22.609375 C 8.835938 -22.222656 8.453125 -21.585938 8.453125 -20.703125 C 8.453125 -20.035156 8.722656 -19.488281 9.265625 -19.0625 C 9.804688 -18.644531 10.53125 -18.304688 11.4375 -18.046875 C 12.34375 -17.796875 13.328125 -17.546875 14.390625 -17.296875 C 15.566406 -17.023438 16.78125 -16.710938 18.03125 -16.359375 C 19.289062 -16.003906 20.445312 -15.507812 21.5 -14.875 C 22.5625 -14.25 23.414062 -13.414062 24.0625 -12.375 C 24.71875 -11.332031 25.046875 -10 25.046875 -8.375 C 25.046875 -6.53125 24.601562 -4.9375 23.71875 -3.59375 C 22.832031 -2.257812 21.570312 -1.222656 19.9375 -0.484375 C 18.300781 0.253906 16.34375 0.625 14.0625 0.625 Z M 14.0625 0.625 "/></g></g></g><g fill="#001369" fill-opacity="1"><g transform="translate(286.649812, 222.810468)"><g><path d="M 19.375 0 L 12.765625 0 L 12.765625 -6.09375 L 1.21875 -6.09375 L 1.21875 -12.359375 L 13.015625 -28.140625 L 19.375 -28.140625 L 19.375 -11.984375 L 22.5 -11.984375 L 22.5 -6.09375 L 19.375 -6.09375 Z M 12.765625 -19.953125 L 7.234375 -11.984375 L 12.765625 -11.984375 Z M 12.765625 -19.953125 "/></g></g></g><g transform="matrix(1, 0, 0, 1, 103, 230)"><g clip-path="url(#ac5a00fe95)"><g fill="#001369" fill-opacity="1"><g transform="translate(0.857744, 7.698377)"><g><path d="M 4.9375 -0.703125 L 4.9375 0 L 0.84375 0 L 0.84375 -5.625 L 4.8125 -5.625 L 4.8125 -4.9375 L 1.65625 -4.9375 L 1.65625 -3.203125 L 4.46875 -3.203125 L 4.46875 -2.515625 L 1.65625 -2.515625 L 1.65625 -0.703125 Z M 4.9375 -0.703125 "/></g></g></g><g fill="#001369" fill-opacity="1"><g transform="translate(12.697141, 7.698377)"><g><path d="M 5.6875 -5.625 L 5.6875 0 L 5.03125 0 L 1.65625 -4.203125 L 1.65625 0 L 0.84375 0 L 0.84375 -5.625 L 1.5 -5.625 L 4.890625 -1.4375 L 4.890625 -5.625 Z M 5.6875 -5.625 "/></g></g></g><g fill="#001369" fill-opacity="1"><g transform="translate(25.680213, 7.698377)"><g><path d="M 4.75 -2.84375 L 5.515625 -2.84375 L 5.515625 -0.65625 C 5.242188 -0.425781 4.921875 -0.25 4.546875 -0.125 C 4.171875 0 3.785156 0.0625 3.390625 0.0625 C 2.816406 0.0625 2.300781 -0.0625 1.84375 -0.3125 C 1.394531 -0.5625 1.039062 -0.90625 0.78125 -1.34375 C 0.519531 -1.78125 0.390625 -2.269531 0.390625 -2.8125 C 0.390625 -3.363281 0.519531 -3.859375 0.78125 -4.296875 C 1.039062 -4.734375 1.398438 -5.078125 1.859375 -5.328125 C 2.316406 -5.578125 2.832031 -5.703125 3.40625 -5.703125 C 3.851562 -5.703125 4.257812 -5.625 4.625 -5.46875 C 5 -5.320312 5.3125 -5.109375 5.5625 -4.828125 L 5.0625 -4.328125 C 4.613281 -4.765625 4.070312 -4.984375 3.4375 -4.984375 C 3.007812 -4.984375 2.625 -4.890625 2.28125 -4.703125 C 1.9375 -4.515625 1.664062 -4.253906 1.46875 -3.921875 C 1.28125 -3.597656 1.1875 -3.226562 1.1875 -2.8125 C 1.1875 -2.40625 1.28125 -2.035156 1.46875 -1.703125 C 1.664062 -1.378906 1.9375 -1.125 2.28125 -0.9375 C 2.625 -0.75 3.003906 -0.65625 3.421875 -0.65625 C 3.929688 -0.65625 4.375 -0.773438 4.75 -1.015625 Z M 4.75 -2.84375 "/></g></g></g><g fill="#001369" fill-opacity="1"><g transform="translate(38.341127, 7.698377)"><g><path d="M 0.84375 -5.625 L 1.65625 -5.625 L 1.65625 0 L 0.84375 0 Z M 0.84375 -5.625 "/></g></g></g><g fill="#001369" fill-opacity="1"><g transform="translate(47.281072, 7.698377)"><g><path d="M 5.6875 -5.625 L 5.6875 0 L 5.03125 0 L 1.65625 -4.203125 L 1.65625 0 L 0.84375 0 L 0.84375 -5.625 L 1.5 -5.625 L 4.890625 -1.4375 L 4.890625 -5.625 Z M 5.6875 -5.625 "/></g></g></g><g fill="#001369" fill-opacity="1"><g transform="translate(60.264144, 7.698377)"><g><path d="M 4.9375 -0.703125 L 4.9375 0 L 0.84375 0 L 0.84375 -5.625 L 4.8125 -5.625 L 4.8125 -4.9375 L 1.65625 -4.9375 L 1.65625 -3.203125 L 4.46875 -3.203125 L 4.46875 -2.515625 L 1.65625 -2.515625 L 1.65625 -0.703125 Z M 4.9375 -0.703125 "/></g></g></g><g fill="#001369" fill-opacity="1"><g transform="translate(72.103541, 7.698377)"><g><path d="M 4.9375 -0.703125 L 4.9375 0 L 0.84375 0 L 0.84375 -5.625 L 4.8125 -5.625 L 4.8125 -4.9375 L 1.65625 -4.9375 L 1.65625 -3.203125 L 4.46875 -3.203125 L 4.46875 -2.515625 L 1.65625 -2.515625 L 1.65625 -0.703125 Z M 4.9375 -0.703125 "/></g></g></g><g fill="#001369" fill-opacity="1"><g transform="translate(83.942939, 7.698377)"><g><path d="M 4.609375 0 L 3.390625 -1.734375 C 3.242188 -1.722656 3.128906 -1.71875 3.046875 -1.71875 L 1.65625 -1.71875 L 1.65625 0 L 0.84375 0 L 0.84375 -5.625 L 3.046875 -5.625 C 3.773438 -5.625 4.347656 -5.453125 4.765625 -5.109375 C 5.179688 -4.765625 5.390625 -4.285156 5.390625 -3.671875 C 5.390625 -3.234375 5.28125 -2.859375 5.0625 -2.546875 C 4.851562 -2.242188 4.550781 -2.023438 4.15625 -1.890625 L 5.484375 0 Z M 3.015625 -2.390625 C 3.523438 -2.390625 3.914062 -2.5 4.1875 -2.71875 C 4.457031 -2.945312 4.59375 -3.265625 4.59375 -3.671875 C 4.59375 -4.078125 4.457031 -4.390625 4.1875 -4.609375 C 3.914062 -4.828125 3.523438 -4.9375 3.015625 -4.9375 L 1.65625 -4.9375 L 1.65625 -2.390625 Z M 3.015625 -2.390625 "/></g></g></g><g fill="#001369" fill-opacity="1"><g transform="translate(96.241418, 7.698377)"><g><path d="M 0.84375 -5.625 L 1.65625 -5.625 L 1.65625 0 L 0.84375 0 Z M 0.84375 -5.625 "/></g></g></g><g fill="#001369" fill-opacity="1"><g transform="translate(105.181364, 7.698377)"><g><path d="M 5.6875 -5.625 L 5.6875 0 L 5.03125 0 L 1.65625 -4.203125 L 1.65625 0 L 0.84375 0 L 0.84375 -5.625 L 1.5 -5.625 L 4.890625 -1.4375 L 4.890625 -5.625 Z M 5.6875 -5.625 "/></g></g></g><g fill="#001369" fill-opacity="1"><g transform="translate(118.164435, 7.698377)"><g><path d="M 4.75 -2.84375 L 5.515625 -2.84375 L 5.515625 -0.65625 C 5.242188 -0.425781 4.921875 -0.25 4.546875 -0.125 C 4.171875 0 3.785156 0.0625 3.390625 0.0625 C 2.816406 0.0625 2.300781 -0.0625 1.84375 -0.3125 C 1.394531 -0.5625 1.039062 -0.90625 0.78125 -1.34375 C 0.519531 -1.78125 0.390625 -2.269531 0.390625 -2.8125 C 0.390625 -3.363281 0.519531 -3.859375 0.78125 -4.296875 C 1.039062 -4.734375 1.398438 -5.078125 1.859375 -5.328125 C 2.316406 -5.578125 2.832031 -5.703125 3.40625 -5.703125 C 3.851562 -5.703125 4.257812 -5.625 4.625 -5.46875 C 5 -5.320312 5.3125 -5.109375 5.5625 -4.828125 L 5.0625 -4.328125 C 4.613281 -4.765625 4.070312 -4.984375 3.4375 -4.984375 C 3.007812 -4.984375 2.625 -4.890625 2.28125 -4.703125 C 1.9375 -4.515625 1.664062 -4.253906 1.46875 -3.921875 C 1.28125 -3.597656 1.1875 -3.226562 1.1875 -2.8125 C 1.1875 -2.40625 1.28125 -2.035156 1.46875 -1.703125 C 1.664062 -1.378906 1.9375 -1.125 2.28125 -0.9375 C 2.625 -0.75 3.003906 -0.65625 3.421875 -0.65625 C 3.929688 -0.65625 4.375 -0.773438 4.75 -1.015625 Z M 4.75 -2.84375 "/></g></g></g></g></g><path fill="#001369" d="M 148.09375 100.976562 L 170.097656 89.707031 L 170.097656 166.101562 L 148.09375 162.820312 Z M 148.09375 100.976562 " fill-opacity="1" fill-rule="evenodd"/><path fill="#001369" d="M 207.808594 90.59375 L 207.808594 103.015625 L 209.140625 103.726562 C 214.464844 106.390625 220.054688 109.316406 224.933594 112.6875 C 228.394531 115.171875 231.410156 118.011719 233.363281 121.738281 L 233.453125 122.007812 C 233.097656 105.679688 229.988281 101.867188 207.808594 90.59375 Z M 207.808594 90.59375 " fill-opacity="1" fill-rule="evenodd"/><path fill="#001369" d="M 207.808594 163 L 207.808594 179.414062 L 228.925781 179.414062 C 228.75 178.96875 228.480469 178.4375 228.304688 177.992188 C 226.707031 175.066406 224.222656 172.847656 221.5625 170.894531 C 217.390625 167.96875 212.511719 165.394531 207.808594 163 Z M 207.808594 163 " fill-opacity="1" fill-rule="evenodd"/><path fill="#001369" d="M 207.808594 163 L 207.808594 179.414062 L 228.925781 179.414062 L 228.925781 179.324219 L 228.835938 179.234375 L 228.835938 179.054688 L 228.746094 179.054688 L 228.746094 178.875 L 228.65625 178.875 L 228.65625 178.695312 L 228.566406 178.695312 L 228.566406 178.425781 L 228.476562 178.425781 L 228.476562 178.246094 L 228.386719 178.246094 L 228.386719 178.066406 L 228.296875 178.066406 L 228.296875 177.976562 C 226.699219 175.050781 224.214844 172.828125 221.554688 170.878906 L 221.378906 170.789062 L 221.199219 170.609375 L 221.109375 170.609375 L 220.929688 170.429688 L 220.753906 170.339844 L 220.664062 170.339844 L 220.394531 170.070312 L 220.21875 169.984375 L 220.128906 169.984375 L 219.949219 169.804688 L 219.773438 169.714844 L 219.59375 169.535156 L 219.328125 169.445312 L 219.152344 169.269531 L 218.972656 169.179688 L 218.53125 168.914062 L 218.441406 168.824219 L 218.261719 168.734375 L 218.085938 168.644531 L 217.90625 168.464844 L 217.730469 168.375 L 217.640625 168.375 L 217.460938 168.195312 L 217.285156 168.105469 L 217.015625 167.929688 L 216.574219 167.660156 L 216.394531 167.570312 L 216.128906 167.480469 L 216.128906 167.390625 L 215.953125 167.300781 L 215.863281 167.300781 L 215.773438 167.210938 L 215.59375 167.121094 L 215.507812 167.03125 L 215.417969 167.03125 L 215.328125 166.941406 L 215.148438 166.851562 L 215.058594 166.851562 L 214.617188 166.585938 L 214.4375 166.496094 L 214.4375 166.40625 L 214.171875 166.316406 L 213.996094 166.226562 L 213.726562 166.050781 L 213.550781 165.960938 L 213.460938 165.960938 L 213.285156 165.871094 L 212.664062 165.515625 L 212.488281 165.425781 L 212.398438 165.335938 L 212.042969 165.160156 L 211.953125 165.160156 L 211.777344 164.984375 L 211.15625 164.628906 L 211.066406 164.628906 L 210.886719 164.539062 L 210.796875 164.539062 L 210.707031 164.449219 L 210.53125 164.359375 L 210.441406 164.269531 L 210.351562 164.269531 L 210.261719 164.179688 L 210.085938 164.089844 L 209.996094 164.089844 L 209.820312 164 L 209.640625 163.824219 L 209.550781 163.824219 L 209.375 163.734375 L 209.109375 163.644531 L 208.929688 163.46875 L 208.839844 163.46875 L 208.488281 163.289062 L 208.398438 163.289062 L 208.21875 163.199219 L 208.039062 163.019531 L 207.949219 163.019531 Z M 207.808594 163 " fill-opacity="1" fill-rule="evenodd"/><path fill="#001369" d="M 207.808594 106.210938 L 207.808594 120.140625 L 209.140625 120.851562 C 214.464844 123.515625 220.054688 126.441406 224.933594 129.8125 C 228.394531 132.296875 231.410156 135.136719 233.363281 138.863281 L 233.539062 139.132812 C 233.273438 121.5625 230.609375 117.925781 207.808594 106.210938 Z M 207.808594 106.210938 " fill-opacity="1" fill-rule="evenodd"/><path fill="#001369" d="M 207.808594 123.335938 L 207.808594 138.242188 L 209.140625 138.863281 C 214.464844 141.613281 220.054688 144.453125 224.933594 147.914062 C 228.394531 150.398438 231.410156 153.148438 233.363281 156.964844 C 233.453125 157.054688 233.453125 157.140625 233.539062 157.230469 C 233.359375 138.773438 231.054688 135.226562 207.808594 123.335938 Z M 207.808594 123.335938 " fill-opacity="1" fill-rule="evenodd"/><path fill="#001369" d="M 207.808594 141.4375 L 207.808594 159.804688 C 223.425781 167.699219 229.546875 171.960938 231.941406 179.414062 L 233.539062 179.414062 C 233.628906 157.320312 232.652344 154.125 207.808594 141.4375 Z M 207.808594 141.4375 " fill-opacity="1" fill-rule="evenodd"/><g clip-path="url(#91b69ce4b9)"><path fill="#001369" d="M 203.195312 75.957031 L 170.097656 59.007812 L 170.097656 89.707031 L 194.851562 102.398438 L 194.851562 173.820312 L 203.195312 173.820312 Z M 203.195312 75.957031 " fill-opacity="1" fill-rule="evenodd"/></g><path fill="#001369" d="M 240.8125 152.796875 C 248.089844 158.917969 251.816406 165.128906 250.484375 170.628906 C 247.292969 183.671875 216.945312 187.488281 182.609375 179.148438 C 148.359375 170.71875 123.160156 153.417969 126.355469 140.285156 C 127.6875 134.78125 133.898438 130.96875 143.128906 128.925781 C 138.777344 130.789062 135.851562 133.363281 135.054688 136.734375 C 132.304688 147.914062 154.574219 163 184.742188 170.449219 C 215 177.816406 241.707031 174.621094 244.367188 163.441406 C 245.25 160.160156 243.832031 156.519531 240.8125 152.796875 Z M 240.8125 152.796875 " fill-opacity="1" fill-rule="evenodd"/></svg>
